<svg width="24" height="25" viewBox="0 0 24 25" fill="none" xmlns="http://www.w3.org/2000/svg">
<mask id="mask0_2_120" style="mask-type:alpha" maskUnits="userSpaceOnUse" x="0" y="0" width="24" height="25">
<rect y="0.407715" width="24" height="24" fill="currentColor" />
</mask>
<g mask="url(#mask0_2_120)">
<path d="M9.57505 15.9172V8.89822C9.57505 8.65072 9.67797 8.47089 9.8838 8.35872C10.0895 8.24656 10.3025 8.25072 10.523 8.37122L15.971 11.8962C16.1584 12.0231 16.252 12.1936 16.252 12.4077C16.252 12.6219 16.1584 12.7924 15.971 12.9192L10.523 16.4442C10.3025 16.5647 10.0895 16.5689 9.8838 16.4567C9.67797 16.3446 9.57505 16.1647 9.57505 15.9172ZM3.32505 18.648V20.1577C3.32505 20.4539 3.21988 20.7071 3.00955 20.9172C2.79938 21.1276 2.54622 21.2327 2.25005 21.2327C1.95388 21.2327 1.70072 21.1276 1.49055 20.9172C1.28022 20.7071 1.17505 20.4539 1.17505 20.1577V16.1192C1.17505 15.7782 1.29463 15.4881 1.5338 15.249C1.7728 15.01 2.06288 14.8905 2.40405 14.8905H6.4328C6.72897 14.8905 6.98213 14.9956 7.1923 15.2057C7.40263 15.4161 7.5078 15.6693 7.5078 15.9655C7.5078 16.2616 7.40263 16.5148 7.1923 16.725C6.98213 16.9353 6.72897 17.0405 6.4328 17.0405H4.80005C5.57822 18.3121 6.5958 19.3038 7.8528 20.0155C9.10997 20.727 10.4924 21.0827 12 21.0827C13.6872 21.0827 15.2308 20.6161 16.6308 19.6827C18.0308 18.7494 19.0968 17.5032 19.8288 15.9442C20.0006 15.6186 20.2145 15.3718 20.4703 15.204C20.726 15.036 21.0269 14.9872 21.373 15.0577C21.6859 15.1282 21.9003 15.3022 22.0163 15.5797C22.1323 15.8574 22.1211 16.1443 21.9828 16.4405C21.1058 18.5033 19.7689 20.1511 17.972 21.3837C16.1754 22.6164 14.1847 23.2327 12 23.2327C10.2629 23.2327 8.64172 22.8353 7.13655 22.0405C5.63138 21.2455 4.36088 20.1146 3.32505 18.648ZM2.26555 11.7327C1.95272 11.7327 1.71197 11.6218 1.5433 11.4C1.3748 11.1783 1.31747 10.9078 1.3713 10.5885C1.4918 9.80897 1.68438 9.09364 1.94905 8.44247C2.21388 7.79114 2.56105 7.12889 2.99055 6.45572C3.15205 6.18022 3.37155 6.02164 3.64905 5.97997C3.92672 5.93831 4.18155 6.03347 4.41355 6.26547C4.63922 6.49114 4.76705 6.75781 4.79705 7.06547C4.82722 7.37314 4.7648 7.68339 4.6098 7.99622C4.35197 8.43339 4.14197 8.85806 3.9798 9.27022C3.81763 9.68239 3.67505 10.1301 3.55205 10.6135C3.46488 10.943 3.31105 11.2119 3.09055 11.4202C2.87005 11.6286 2.59505 11.7327 2.26555 11.7327ZM11 2.72697C11 3.04997 10.9016 3.32756 10.7048 3.55972C10.5081 3.79172 10.245 3.95647 9.91555 4.05397C9.46938 4.17064 9.06263 4.30172 8.6953 4.44722C8.32797 4.59272 7.95072 4.78597 7.56355 5.02697C7.27755 5.19881 6.98072 5.27539 6.67305 5.25672C6.36538 5.23822 6.09872 5.10781 5.87305 4.86547C5.65772 4.62697 5.57088 4.36897 5.61255 4.09147C5.65422 3.81381 5.81288 3.59747 6.08855 3.44247C6.70138 3.03981 7.3033 2.72022 7.8943 2.48372C8.4853 2.24722 9.14047 2.04047 9.8598 1.86347C10.1725 1.79297 10.4407 1.84106 10.6645 2.00772C10.8882 2.17439 11 2.41414 11 2.72697ZM18.123 4.87497C17.8974 5.10064 17.6324 5.22697 17.328 5.25397C17.0235 5.28081 16.72 5.20514 16.4173 5.02697C16.043 4.78597 15.6705 4.58272 15.3 4.41722C14.9295 4.25189 14.5276 4.12247 14.0943 4.02897C13.775 3.93147 13.5128 3.77247 13.3078 3.55197C13.1026 3.33147 13 3.05647 13 2.72697C13 2.41414 13.1077 2.17022 13.323 1.99522C13.5385 1.82022 13.7975 1.76797 14.1 1.83847C14.8129 1.99881 15.4741 2.20714 16.0838 2.46347C16.6933 2.71997 17.3096 3.04631 17.9328 3.44247C18.2148 3.60397 18.3725 3.82347 18.4058 4.10097C18.4391 4.37864 18.3449 4.63664 18.123 4.87497ZM21.7058 11.7327C21.3828 11.7327 21.111 11.6244 20.8905 11.4077C20.6699 11.1911 20.516 10.918 20.4288 10.5885C20.3288 10.0988 20.1994 9.64622 20.0405 9.23072C19.8815 8.81539 19.6552 8.40706 19.3615 8.00572C19.1897 7.70956 19.1157 7.40764 19.1395 7.09997C19.1632 6.79231 19.2879 6.52564 19.5135 6.29997C19.752 6.06164 20.01 5.95747 20.2875 5.98747C20.5651 6.01764 20.7814 6.17056 20.9366 6.44622C21.3789 7.09622 21.7257 7.75006 21.977 8.40772C22.2282 9.06539 22.434 9.77564 22.5943 10.5385C22.6648 10.8641 22.6141 11.1446 22.4423 11.3797C22.2705 11.6151 22.025 11.7327 21.7058 11.7327Z" fill="currentColor"/>
</g>
</svg>
