<svg width="24" height="25" viewBox="0 0 24 25" fill="none" xmlns="http://www.w3.org/2000/svg">
<mask id="mask0_2_111" style="mask-type:alpha" maskUnits="userSpaceOnUse" x="0" y="0" width="24" height="25">
<rect y="0.407715" width="24" height="24" fill="currentColor" />
</mask>
<g mask="url(#mask0_2_111)">
<path d="M4.8692 22.0308C4.57137 22.0308 4.32195 21.9215 4.12095 21.703C3.91978 21.4844 3.8192 21.2269 3.8192 20.9308V19.9308H3.84995C2.97062 19.9308 2.22578 19.6179 1.61545 18.9923C1.00512 18.3668 0.699951 17.6129 0.699951 16.7308V11.6308C0.699951 11.0486 0.904785 10.5531 1.31445 10.1443C1.72428 9.73527 2.22078 9.53077 2.80395 9.53077C3.38712 9.53077 3.88228 9.73527 4.28945 10.1443C4.69645 10.5531 4.89995 11.0486 4.89995 11.6308V15.7808H19.15V11.6308C19.15 11.0486 19.3548 10.5531 19.7645 10.1443C20.1741 9.73527 20.6706 9.53077 21.254 9.53077C21.8371 9.53077 22.3323 9.73527 22.7395 10.1443C23.1465 10.5531 23.35 11.0486 23.35 11.6308V16.7308C23.35 17.6129 23.0448 18.3668 22.4345 18.9923C21.8241 19.6179 21.0793 19.9308 20.2 19.9308H20.2307V20.9308C20.2307 21.2364 20.127 21.4962 19.9195 21.71C19.712 21.9239 19.4555 22.0308 19.15 22.0308C18.8521 22.0308 18.6027 21.9215 18.4017 21.703C18.2005 21.4844 18.1 21.2269 18.1 20.9308V19.9308H5.9692V20.9308C5.9692 21.2428 5.86387 21.5041 5.6532 21.7148C5.44253 21.9254 5.1812 22.0308 4.8692 22.0308ZM7.04995 13.6308V11.6308C7.04995 10.6449 6.75478 9.76968 6.16445 9.00502C5.57395 8.24018 4.80245 7.74885 3.84995 7.53102V6.42327C3.84995 5.5301 4.15995 4.77343 4.77995 4.15327C5.40012 3.53327 6.15678 3.22327 7.04995 3.22327H17C17.8931 3.22327 18.6498 3.53327 19.27 4.15327C19.89 4.77343 20.2 5.5301 20.2 6.42327V7.53102C19.2538 7.76418 18.484 8.26118 17.8905 9.02202C17.2968 9.78285 17 10.6524 17 11.6308V13.6308H7.04995Z" fill="currentColor"/>
</g>
</svg>
