<svg width="24" height="25" viewBox="0 0 24 25" fill="none" xmlns="http://www.w3.org/2000/svg">
<mask id="mask0_2_102" style="mask-type:alpha" maskUnits="userSpaceOnUse" x="0" y="0" width="24" height="25">
<rect y="0.407715" width="24" height="24" fill="currentColor" />
</mask>
<g mask="url(#mask0_2_102)">
<path d="M10.45 13.0269L11.8172 14.3942C11.9814 14.5647 12.1907 14.6499 12.4452 14.6499C12.6997 14.6499 12.9122 14.5647 13.0827 14.3942L16.25 11.2364V12.4327C16.25 12.639 16.3218 12.8114 16.4655 12.9499C16.609 13.0884 16.7871 13.1577 17 13.1577C17.2063 13.1577 17.3829 13.0859 17.5297 12.9422C17.6766 12.7987 17.75 12.6205 17.75 12.4077V9.56144C17.75 9.31027 17.6621 9.09686 17.4865 8.92119C17.3108 8.74552 17.0974 8.65769 16.8462 8.65769H13.975C13.7686 8.65769 13.5962 8.73111 13.4577 8.87794C13.3192 9.02477 13.25 9.20136 13.25 9.40769C13.25 9.62052 13.3218 9.79869 13.4655 9.94219C13.609 10.0859 13.7871 10.1577 14 10.1577H15.1712L12.45 12.9134L11.0827 11.5462C10.9122 11.3654 10.6997 11.2749 10.4452 11.2749C10.1907 11.2749 9.98139 11.3654 9.81723 11.5462L6.87298 14.4807C6.72431 14.6257 6.64998 14.8029 6.64998 15.0124C6.64998 15.2221 6.72431 15.3962 6.87298 15.5347C7.01798 15.6897 7.19523 15.7672 7.40473 15.7672C7.61439 15.7672 7.78848 15.6897 7.92698 15.5347L10.45 13.0269ZM5.30773 21.5577C4.62389 21.5577 4.04331 21.319 3.56598 20.8417C3.08864 20.3644 2.84998 19.7838 2.84998 19.0999V5.71544C2.84998 5.03161 3.08864 4.45102 3.56598 3.97369C4.04331 3.49636 4.62389 3.25769 5.30773 3.25769H18.6922C19.3761 3.25769 19.9566 3.49636 20.434 3.97369C20.9113 4.45102 21.15 5.03161 21.15 5.71544V19.0999C21.15 19.7838 20.9113 20.3644 20.434 20.8417C19.9566 21.319 19.3761 21.5577 18.6922 21.5577H5.30773Z" fill="currentColor"/>
</g>
</svg>
