<svg width="21" height="22" viewBox="0 0 21 22" fill="none" xmlns="http://www.w3.org/2000/svg">
<path d="M2.20642 18.95V12.048L1.73717 12.4098C1.5115 12.6046 1.25058 12.6802 0.954418 12.6365C0.658418 12.593 0.412918 12.4501 0.217918 12.2078C0.0397511 11.9821 -0.0291655 11.7253 0.0111678 11.4375C0.0516678 11.1497 0.187918 10.9083 0.419918 10.7135L2.20642 9.35775V7.1885C2.20642 6.89233 2.31158 6.63917 2.52192 6.429C2.73208 6.21867 2.98525 6.1135 3.28142 6.1135C3.57758 6.1135 3.83075 6.21867 4.04092 6.429C4.25125 6.63917 4.35642 6.89233 4.35642 7.1885V7.70775L8.83142 4.32125C9.04558 4.15075 9.27892 4.02283 9.53142 3.9375C9.78392 3.85233 10.0423 3.80975 10.3064 3.80975C10.5706 3.80975 10.8289 3.84817 11.0814 3.925C11.3339 4.002 11.5673 4.12575 11.7814 4.29625L20.2179 10.6635C20.4499 10.8583 20.5903 11.0997 20.6392 11.3875C20.6878 11.6753 20.6148 11.9404 20.4199 12.1828C20.2249 12.4148 19.9836 12.5568 19.6959 12.6088C19.4081 12.6606 19.1481 12.5891 18.9159 12.3943L18.4064 11.998V18.95C18.4064 19.6487 18.1715 20.233 17.7017 20.703C17.2317 21.1728 16.6473 21.4078 15.9487 21.4078H12.4507C12.2802 21.4078 12.1331 21.3501 12.0094 21.2348C11.8856 21.1193 11.8237 20.9763 11.8237 20.8058V16.3905C11.8237 15.9725 11.6753 15.6151 11.3787 15.3183C11.0818 15.0214 10.7244 14.873 10.3064 14.873C9.88842 14.873 9.531 15.0214 9.23417 15.3183C8.9375 15.6151 8.78917 15.9725 8.78917 16.3905V20.7808C8.78917 20.9513 8.73142 21.0984 8.61592 21.2223C8.50058 21.3459 8.35767 21.4078 8.18717 21.4078H4.66417C3.9655 21.4078 3.38117 21.1728 2.91117 20.703C2.44133 20.233 2.20642 19.6487 2.20642 18.95ZM3.38142 5.0175C3.03008 5.0175 2.75667 4.86975 2.56117 4.57425C2.36567 4.27875 2.34425 3.97067 2.49692 3.65C2.74692 2.96667 3.17833 2.42442 3.79117 2.02325C4.40383 1.62192 5.07242 1.42125 5.79692 1.42125C6.04175 1.42125 6.26767 1.36358 6.47467 1.24825C6.68167 1.13275 6.8455 0.977583 6.96617 0.78275C7.12384 0.575083 7.31325 0.39275 7.53442 0.23575C7.75558 0.0785832 7.99692 0 8.25842 0C8.59942 0 8.8625 0.153583 9.04767 0.46075C9.233 0.76775 9.24933 1.08467 9.09667 1.4115C8.82367 2.07183 8.3865 2.601 7.78517 2.999C7.184 3.39717 6.52125 3.59625 5.79692 3.59625C5.56858 3.59625 5.35092 3.65492 5.14392 3.77225C4.93692 3.88958 4.77317 4.03408 4.65267 4.20575C4.4885 4.41992 4.29842 4.60875 4.08242 4.77225C3.86642 4.93575 3.63275 5.0175 3.38142 5.0175Z" fill="currentColor"/>
</svg>
