<svg width="24" height="24" viewBox="0 0 24 24" fill="none" xmlns="http://www.w3.org/2000/svg">
<mask id="mask0_2_59" style="mask-type:alpha" maskUnits="userSpaceOnUse" x="0" y="0" width="24" height="24">
<rect width="24" height="24" fill="currentColor"/>
</mask>
<g mask="url(#mask0_2_59)">
<path d="M9.44425 16.7319C7.56992 16.7319 5.98209 16.0695 4.68075 14.7447C3.37959 13.4197 2.729 11.803 2.729 9.8946C2.729 7.98618 3.37959 6.36948 4.68075 5.04449C5.98209 3.71966 7.56992 3.05725 9.44425 3.05725C11.3186 3.05725 12.9064 3.71966 14.2078 5.04449C15.5089 6.36948 16.1595 7.98618 16.1595 9.8946C16.1595 10.6387 16.0522 11.3587 15.8375 12.0544C15.6227 12.7502 15.3153 13.3597 14.9153 13.8831L20.5193 19.589C20.7244 19.7977 20.8286 20.0512 20.8318 20.3495C20.8349 20.6479 20.7308 20.9047 20.5193 21.1201C20.3078 21.3354 20.0571 21.4431 19.7673 21.4431C19.4776 21.4431 19.227 21.3354 19.0155 21.1201L13.4365 15.4396C12.9365 15.843 12.324 16.1592 11.599 16.3883C10.874 16.6174 10.1558 16.7319 9.44425 16.7319ZM9.44425 14.5431C10.7328 14.5431 11.8158 14.0963 12.6933 13.2027C13.5709 12.3092 14.0098 11.2065 14.0098 9.8946C14.0098 8.58267 13.5709 7.47998 12.6933 6.58652C11.8158 5.6929 10.7328 5.24609 9.44425 5.24609C8.15575 5.24609 7.07275 5.6929 6.19525 6.58652C5.31759 7.47998 4.87875 8.58267 4.87875 9.8946C4.87875 11.2065 5.31759 12.3092 6.19525 13.2027C7.07275 14.0963 8.15575 14.5431 9.44425 14.5431Z" fill="currentColor"/>
</g>
</svg>
