<svg width="24" height="24" viewBox="0 0 24 24" fill="none" xmlns="http://www.w3.org/2000/svg">
<mask id="mask0_12_8" style="mask-type:alpha" maskUnits="userSpaceOnUse" x="0" y="0" width="24" height="24">
<rect width="24" height="24" fill="currentColor"/>
</mask>
<g mask="url(#mask0_12_8)">
<path d="M12 17.0635L8.28478 19.3095C8.07312 19.4275 7.8612 19.4798 7.64903 19.4663C7.43686 19.4528 7.24686 19.3871 7.07903 19.2693C6.91103 19.1513 6.78662 18.9907 6.70578 18.7875C6.62512 18.5844 6.61486 18.3667 6.67503 18.1345L7.65778 13.8923L4.37328 11.0443C4.17828 10.8995 4.05903 10.7203 4.01553 10.5068C3.97186 10.2933 3.98528 10.0923 4.05578 9.90379C4.12628 9.71545 4.24553 9.55237 4.41353 9.41454C4.58153 9.2767 4.77836 9.19429 5.00403 9.16729L9.31153 8.79629L10.9963 4.80004C11.0936 4.56154 11.2324 4.39262 11.4125 4.29329C11.5927 4.19395 11.7885 4.14429 12 4.14429C12.2115 4.14429 12.4074 4.19395 12.5875 4.29329C12.7677 4.39262 12.9064 4.56154 13.0038 4.80004L14.6885 8.79629L18.996 9.16729C19.2217 9.19429 19.4185 9.2767 19.5865 9.41454C19.7545 9.55237 19.8738 9.71545 19.9443 9.90379C20.0148 10.0923 20.0282 10.2933 19.9845 10.5068C19.941 10.7203 19.8218 10.8995 19.6268 11.0443L16.3423 13.8923L17.325 18.1345C17.3852 18.3667 17.3749 18.5844 17.2943 18.7875C17.2134 18.9907 17.089 19.1513 16.921 19.2693C16.7532 19.3871 16.5632 19.4528 16.351 19.4663C16.1389 19.4798 15.9269 19.4275 15.7153 19.3095L12 17.0635Z" fill="currentColor"/>
</g>
</svg>
