<?xml version="1.0" encoding="utf-8"?>
<!-- Generator: Adobe Illustrator 27.5.0, SVG Export Plug-In . SVG Version: 6.00 Build 0)  -->
<svg version="1.1" id="Lager_1" xmlns="http://www.w3.org/2000/svg" xmlns:xlink="http://www.w3.org/1999/xlink" x="0px" y="0px"
	 viewBox="0 0 50 50" style="enable-background:new 0 0 50 50;" xml:space="preserve">
<style type="text/css">
	.st0{fill:#FFFFFF;}
</style>
<path class="st0" d="M25,2.3C12.46,2.3,2.3,12.46,2.3,25S12.46,47.7,25,47.7S47.7,37.54,47.7,25S37.54,2.3,25,2.3z M31.7,36.25
	c0.78,0.78,0.78,2.05,0,2.83c-0.39,0.39-0.9,0.59-1.42,0.59c-0.51,0-1.02-0.2-1.42-0.59L16.2,26.42c-0.38-0.38-0.59-0.88-0.59-1.42
	c0-0.53,0.21-1.04,0.59-1.42l12.66-12.66c0.78-0.78,2.05-0.78,2.83,0c0.78,0.78,0.78,2.05,0,2.83L20.45,25L31.7,36.25z"/>
</svg>
