<?xml version="1.0" encoding="UTF-8"?>
<svg id="Lager_1" data-name="Lager 1" xmlns="http://www.w3.org/2000/svg" viewBox="0 0 286.65 381.37">
  <defs>
    <style>
      .cls-1 {
        fill: rgb(192, 0, 0);
        stroke-width: 0;
      }
    </style>
  </defs>
  <g>
    <path class="cls-1" d="M23.35,52.51c-3.73,0-6.73-1.16-9.01-3.49-2.28-2.32-3.41-5.58-3.41-9.76V15.47c0-5,.99-8.83,2.97-11.48C15.88,1.33,19.11.01,23.58.01c2.44,0,4.61.45,6.52,1.35,1.9.9,3.4,2.24,4.5,4.03,1.09,1.79,1.64,4.04,1.64,6.75v8.91h-10.25v-7.62c0-1.54-.2-2.58-.59-3.12s-1-.81-1.82-.81c-.96,0-1.6.35-1.93,1.04-.33.69-.5,1.62-.5,2.77v25.81c0,1.43.21,2.43.63,3.02.42.59,1.02.88,1.8.88.88,0,1.5-.36,1.86-1.08s.54-1.66.54-2.81v-9.29h10.37v9.76c0,4.53-1.14,7.82-3.43,9.86s-5.48,3.06-9.58,3.06h0Z"/>
    <path class="cls-1" d="M39.31,52.04V.48h9.96v51.56h-9.96Z"/>
    <path class="cls-1" d="M53.38,52.04V.48h10.61l4.75,24.7V.48h9.96v51.56h-10.08l-5.16-25.78v25.78h-10.08Z"/>
    <path class="cls-1" d="M83.26,52.04V.48h20.62v9.96h-10.14v10.05h9.73v9.7h-9.73v11.81h10.81v10.05h-21.3.01Z"/>
    <path class="cls-1" d="M122.02,52.04V.48h15.7l4.34,31.44L146.37.48h15.85v51.56h-9.43V14.89l-5.92,37.15h-9.26l-6.27-37.15v37.15h-9.32Z"/>
    <path class="cls-1" d="M179.09,52.51c-4.12,0-7.27-1.25-9.45-3.74-2.18-2.49-3.27-6.09-3.27-10.8V13.48c0-4.41,1.08-7.76,3.24-10.05s5.32-3.43,9.48-3.43,7.32,1.14,9.48,3.43,3.24,5.64,3.24,10.05v24.49c0,4.71-1.09,8.31-3.27,10.8s-5.33,3.74-9.45,3.74ZM179.18,43.02c1.56,0,2.34-1.51,2.34-4.54V13.31c0-2.54-.76-3.81-2.29-3.81-1.72,0-2.58,1.3-2.58,3.9v25.14c0,1.6.2,2.75.59,3.44.39.69,1.04,1.04,1.93,1.04h.01Z"/>
    <path class="cls-1" d="M200.71,52.04L194.35.45h9.81l3.78,35.1L211.31.45h9.81l-6.36,51.59h-14.06,0Z"/>
    <path class="cls-1" d="M223.65,52.04V.48h9.96v51.56h-9.96Z"/>
    <path class="cls-1" d="M237.71,52.04V.48h20.62v9.96h-10.14v10.05h9.73v9.7h-9.73v11.81h10.81v10.05h-21.3.01Z"/>
    <path class="cls-1" d="M274.66,52.51c-4.71,0-8.1-1.17-10.18-3.52s-3.12-6.07-3.12-11.19v-5.04h10.2v6.45c0,1.19.18,2.12.54,2.8.36.67.99,1.01,1.89,1.01s1.59-.27,1.95-.82c.36-.55.54-1.45.54-2.7,0-1.58-.16-2.9-.47-3.97-.31-1.06-.85-2.08-1.63-3.05-.77-.97-1.84-2.09-3.21-3.38l-4.63-4.39c-3.46-3.26-5.19-6.99-5.19-11.19s1.02-7.74,3.06-10.05c2.04-2.3,5-3.46,8.86-3.46,4.73,0,8.08,1.26,10.06,3.78s2.97,6.35,2.97,11.48h-10.49v-3.54c0-.7-.2-1.25-.6-1.64s-.94-.59-1.63-.59c-.82,0-1.42.23-1.8.69-.38.46-.57,1.05-.57,1.77s.2,1.5.59,2.34c.39.84,1.16,1.81,2.31,2.9l5.95,5.71c1.19,1.13,2.29,2.33,3.28,3.59s1.8,2.72,2.4,4.39.91,3.71.91,6.11c0,4.84-.89,8.64-2.68,11.38-1.79,2.74-4.9,4.12-9.33,4.12h.02Z"/>
  </g>
  <g>
    <path class="cls-1" d="M62.91,381.37c33.79-55.93,72.37-119.77,110.82-183.4-25.64-9.9-51.57-17.82-75.51-29.74-25.38-12.64-49.3-28.44-72.95-44.21-8.6-5.73-15.66-14.66-21.5-23.41-7.21-10.78-3.93-20.04,8.54-24.09,10.44-3.39,21.73-5.77,32.65-5.84,79.87-.48,159.74-.26,240.6-.26v243.14c-4.37,0-9.04,0-13.72,0-41.51-.06-83.03-.45-124.53.16-6.21.09-13.53,3.51-18.31,7.7-24.47,21.46-48.27,43.67-66.09,59.95ZM118.75,114.86v-22.85h-21.61v22.85h21.61ZM145.48,92.05v22.29h22.25v-22.29h-22.25ZM216.47,92.55h-22.2v22.09h22.2v-22.09ZM216.14,291.56v-21.92h-22.22v21.92h22.22ZM166.9,291.55c2.72-23.8.98-25.44-21.11-20.92v20.92h21.11ZM264.84,269.82h-21.98v21.67h21.98v-21.67ZM47.9,114.31h21.08v-22.38h-21.08v22.38ZM243.4,114.54h21.63v-21.9h-21.63v21.9Z"/>
    <path class="cls-1" d="M91.81,191.44c-4.43,7.86-8.1,14.36-12.45,22.07-7.89-4.08-15.11-7.82-22.94-11.87,3.46-7.81,6.46-14.59,10.03-22.65,8.48,4.16,16.26,7.99,25.36,12.46Z"/>
    <path class="cls-1" d="M102.17,221.69c3.54-6.5,7.07-13.01,11.29-20.76,8.27,3.05,16.31,6.01,24.4,8.99-10.12,23.6-12.42,24.36-35.69,11.76Z"/>
    <path class="cls-1" d="M36.57,187.62c-23.86-12.07-21.36-11.14-11.3-33.51,2.26,1.35,4.5,2.61,6.66,4.01,4.4,2.85,8.74,5.77,13.9,9.19-3.19,6.99-6.22,13.64-9.27,20.31Z"/>
  </g>
</svg>