<svg width="120" height="120" viewBox="0 0 120 120" fill="none" xmlns="http://www.w3.org/2000/svg">
<mask id="mask0_13_13" style="mask-type:alpha" maskUnits="userSpaceOnUse" x="0" y="0" width="120" height="120">
<rect width="120" height="120" fill="#D9D9D9"/>
</mask>
<g mask="url(#mask0_13_13)">
<path d="M46.9998 83.4423L83.4423 59.9998L46.9998 36.5573V83.4423ZM60.0085 111.5C52.8852 111.5 46.1898 110.148 39.9223 107.445C33.6548 104.741 28.2031 101.073 23.5673 96.4385C18.9314 91.8043 15.261 86.3548 12.556 80.0898C9.85184 73.8248 8.49976 67.131 8.49976 60.0085C8.49976 52.8635 9.85392 46.1481 12.5623 39.8623C15.2706 33.5764 18.946 28.1085 23.5885 23.4585C28.231 18.8085 33.6806 15.1527 39.9373 12.491C46.1931 9.83017 52.8777 8.49976 59.991 8.49976C67.1352 8.49976 73.8498 9.82975 80.1348 12.4898C86.4206 15.1498 91.8889 18.8043 96.5398 23.4535C101.191 28.1027 104.847 33.5698 107.509 39.8548C110.169 46.1398 111.5 52.8556 111.5 60.0023C111.5 67.1481 110.17 73.8406 107.51 80.0798C104.85 86.3189 101.196 91.7606 96.5473 96.4048C91.8989 101.049 86.4331 104.726 80.1498 107.436C73.8664 110.145 67.1527 111.5 60.0085 111.5Z" fill="#2B3A1B"/>
</g>
</svg>
