<svg width="25" height="25" viewBox="0 0 25 25" fill="none" xmlns="http://www.w3.org/2000/svg">
<g clip-path="url(#clip0_10_330)">
<path d="M22.9166 5.95833L18.1249 1.9375L16.7812 3.53125L21.5728 7.55208L22.9166 5.95833ZM8.20825 3.53125L6.87492 1.9375L2.08325 5.94792L3.427 7.54167L8.20825 3.53125ZM13.0208 8.33333H11.4583V14.5833L16.4062 17.5521L17.1874 16.2708L13.0208 13.8021V8.33333ZM12.4999 4.16667C7.32284 4.16667 3.12492 8.36458 3.12492 13.5417C3.12492 18.7188 7.31242 22.9167 12.4999 22.9167C17.677 22.9167 21.8749 18.7188 21.8749 13.5417C21.8749 8.36458 17.677 4.16667 12.4999 4.16667ZM12.4999 20.8333C8.46867 20.8333 5.20825 17.5729 5.20825 13.5417C5.20825 9.51042 8.46867 6.25 12.4999 6.25C16.5312 6.25 19.7916 9.51042 19.7916 13.5417C19.7916 17.5729 16.5312 20.8333 12.4999 20.8333Z" fill="#F4F4F4"/>
</g>
<defs>
<clipPath id="clip0_10_330">
<rect width="25" height="25" fill="white"/>
</clipPath>
</defs>
</svg>
