<svg width="140" height="25" viewBox="0 0 140 25" fill="none" xmlns="http://www.w3.org/2000/svg">
<path d="M19.9947 0.727305C19.8221 0.727305 19.6249 0.727305 19.3907 0.764286C19.1565 0.788941 18.8976 0.850577 18.6264 0.961522L10.811 16.5061L2.9462 0.949194C2.68733 0.83825 2.42846 0.776614 2.15726 0.751959C1.88606 0.727305 1.63952 0.714978 1.4053 0.714978C1.23272 0.714978 1.02316 0.714978 0.764286 0.751959C0.505415 0.788941 0.246544 0.83825 0 0.949194V24.0873C0.443779 24.2353 0.936867 24.3092 1.47926 24.3092C1.97235 24.3092 2.47777 24.2353 2.98318 24.0873V7.32236L9.45496 20.1426C9.8371 20.2906 10.2932 20.3645 10.7986 20.3645C11.304 20.3645 11.7478 20.2906 12.1176 20.1426L18.5648 7.35934V24.0873C19.0085 24.2353 19.5016 24.3092 20.044 24.3092C20.5371 24.3092 21.0425 24.2353 21.5479 24.0873V0.949194C21.3137 0.83825 21.0549 0.776614 20.7837 0.751959C20.5001 0.727305 20.2536 0.714978 20.0194 0.714978L19.9947 0.727305Z" fill="#2B3A1B"/>
<path d="M66.1847 4.3515C66.8011 4.3515 67.3188 4.14194 67.738 3.72281C68.1571 3.30369 68.3666 2.78595 68.3666 2.16959C68.3666 1.55323 68.1571 1.01083 67.7626 0.604033C67.3681 0.197235 66.8381 0 66.1971 0C65.556 0 65.063 0.209562 64.6438 0.604033C64.2247 1.01083 64.0151 1.52857 64.0151 2.16959C64.0151 2.77362 64.2247 3.27904 64.6562 3.71049C65.0876 4.14194 65.593 4.3515 66.1971 4.3515H66.1847Z" fill="#2B3A1B"/>
<path d="M80.5706 9.17144C79.8433 8.72766 79.005 8.5181 78.0682 8.5181C76.9587 8.5181 75.9602 8.81395 75.085 9.39333C74.2097 9.98503 73.5194 10.7863 73.0387 11.7971C72.5456 12.808 72.299 13.979 72.299 15.3104C72.299 17.2704 72.7182 18.9839 73.5441 20.4385C72.6935 20.9316 71.9415 21.2767 71.3005 21.474C70.6595 21.6712 70.0308 21.7822 69.4145 21.7822C68.7365 21.7822 68.231 21.5233 67.9229 21.0179C67.6147 20.5001 67.4544 19.6619 67.4544 18.4908V9.61522C67.1709 9.25773 66.8011 8.99886 66.3327 8.85093C65.8642 8.703 65.4081 8.64137 64.952 8.69068C64.5699 9.41798 63.8795 10.0343 62.881 10.5398C61.8825 11.0452 60.8471 11.2917 59.7499 11.2917C59.6143 11.2917 59.4911 11.2671 59.3555 11.2671C59.2568 10.8479 59.1459 10.4535 58.998 10.096C58.5542 9.06049 57.9871 8.54275 57.2845 8.54275C56.8777 8.54275 56.4586 8.703 56.0148 9.03584C55.571 9.36867 55.2135 9.81245 54.9053 10.3795C54.6095 10.9466 54.4246 11.5752 54.3629 12.2532C54.9177 12.8943 55.6943 13.412 56.7051 13.7941V14.3119C56.7051 15.6186 56.4709 16.839 56.0148 17.9854C55.5587 19.1318 54.9547 20.0564 54.2027 20.759C53.4507 21.4617 52.6371 21.8191 51.7619 21.8191C50.3936 21.8191 49.7156 20.6604 49.7156 18.3305V13.486C49.7156 11.9697 49.3088 10.7616 48.5075 9.88641C47.7063 8.99886 46.7447 8.55508 45.6106 8.55508C44.6861 8.55508 43.7616 8.76464 42.8247 9.19609C41.8878 9.61522 40.6798 10.3302 39.1758 11.3164C38.6334 10.6384 38.0048 10.059 37.2528 9.59056C36.1187 8.90024 34.8367 8.55508 33.4067 8.55508C31.9768 8.55508 30.6824 8.90024 29.5483 9.59056C28.4019 10.2809 27.502 11.2301 26.8363 12.4258C26.1706 13.6216 25.8378 14.9899 25.8378 16.5308C25.8378 18.0717 26.1583 19.4523 26.8117 20.6604C27.465 21.8808 28.3649 22.83 29.499 23.5326C30.6454 24.2229 31.9398 24.5804 33.3944 24.5804C34.849 24.5804 36.131 24.2353 37.2528 23.5326C38.3746 22.8423 39.2621 21.8808 39.9155 20.6604C40.5688 19.44 40.8893 18.0593 40.8893 16.5308C40.8893 15.5076 40.7291 14.5707 40.4455 13.6955C40.4825 13.6832 40.5072 13.6709 40.5442 13.6462C41.6166 12.8943 42.5658 12.3272 43.3917 11.9204C44.23 11.5136 44.871 11.3164 45.3518 11.3164C45.7586 11.3164 46.1037 11.5136 46.3749 11.9081C46.6461 12.3025 46.794 12.9682 46.794 13.9051V18.9346C46.794 20.6604 47.2132 22.041 48.0391 23.0519C48.865 24.0627 49.9991 24.5804 51.4414 24.5804C53.007 24.5804 54.3999 24.1243 55.645 23.1998C56.8777 22.2752 57.8639 21.0302 58.5788 19.44C59.2938 17.8498 59.6513 16.0623 59.6513 14.0653C59.6513 14.016 59.6513 13.979 59.6513 13.9297C60.5635 13.9297 61.4388 13.8188 62.2647 13.6092C63.1029 13.3997 63.8672 13.1038 64.5206 12.7463V18.8729C64.5206 22.6697 66.0738 24.5804 69.1679 24.5804C71.054 24.5804 73.014 23.9394 75.0603 22.6574C75.6644 23.2614 76.404 23.7299 77.3039 24.0627C78.2037 24.4079 79.1653 24.5804 80.1884 24.5804C80.5459 24.5804 80.8295 24.4572 81.0267 24.2229C81.2239 23.9887 81.3102 23.6682 81.3102 23.2614C81.3102 22.83 81.2239 22.4971 81.0513 22.2383C80.8787 21.9794 80.6445 21.8561 80.3487 21.8561C79.1899 21.8561 78.2777 21.6096 77.5874 21.1165C79.4858 19.7975 80.8418 18.5648 81.643 17.4307C82.4443 16.2966 82.8388 15.0515 82.8388 13.6832C82.8388 12.6724 82.6415 11.7971 82.2347 11.0205C81.828 10.2562 81.2609 9.6522 80.5336 9.20842L80.5706 9.17144ZM36.6857 20.3399C35.8598 21.3014 34.7627 21.7822 33.3944 21.7822C32.0261 21.7822 30.9289 21.3014 30.1153 20.3399C29.2894 19.3784 28.8826 18.121 28.8826 16.5554C28.8826 15.3597 29.1292 14.3242 29.6223 13.4613C30.1153 12.5984 30.781 11.982 31.6439 11.6122C32.248 12.4258 33.0615 13.0668 34.097 13.5353C35.1325 14.0037 36.2913 14.2626 37.5733 14.2996C37.8075 14.9652 37.9308 15.6925 37.9308 16.4815C37.9308 18.084 37.524 19.366 36.6981 20.3276L36.6857 20.3399ZM79.0913 16.2719C78.4133 17.1964 77.3902 18.1333 75.9972 19.0948C75.3932 18.0963 75.0973 16.7403 75.0973 15.0515C75.0973 13.9667 75.3685 13.0422 75.9109 12.2902C76.4533 11.5383 77.1436 11.1684 77.9819 11.1684C78.6475 11.1684 79.1653 11.3903 79.5351 11.8218C79.9049 12.2656 80.1021 12.8696 80.1021 13.6339C80.1021 14.4721 79.7693 15.3474 79.0913 16.2596V16.2719Z" fill="#2B3A1B"/>
<path d="M139.741 8.5181C139.914 8.17293 140 7.75381 140 7.23607C140 6.71832 139.914 6.2992 139.741 5.95404H134.971V0.271198C134.502 0.123272 134.009 0.0493088 133.491 0.0493088C132.912 0.0493088 132.419 0.123272 132.012 0.271198V5.94171H129.645C129.497 6.28687 129.423 6.706 129.423 7.22374C129.423 7.74148 129.497 8.16061 129.645 8.50577H132.012V11.5876C132.012 13.5722 131.802 15.2241 131.371 16.5431C130.94 17.8621 130.397 18.8976 129.731 19.6742C129.066 20.4508 128.388 20.9932 127.697 21.3137C127.007 21.6342 126.391 21.7945 125.848 21.7945C125.01 21.7945 124.418 21.474 124.073 20.8453C123.716 20.2166 123.543 19.329 123.543 18.1949V8.96187C123.075 8.81395 122.582 8.73998 122.064 8.73998C121.793 8.73998 121.522 8.76464 121.263 8.80162C121.004 8.85093 120.794 8.90024 120.622 8.96187V14.9899C120.622 19.4523 119.093 21.6835 116.036 21.6835C114.754 21.6835 113.817 21.2644 113.213 20.4138C112.609 19.5633 112.313 18.2196 112.313 16.3582V9.59056C112.03 9.23307 111.66 8.9742 111.191 8.82627C110.723 8.67835 110.267 8.61671 109.811 8.66602C109.429 9.39333 108.738 10.0097 107.74 10.5151C106.741 11.0205 105.706 11.2671 104.609 11.2671C104.263 11.2671 103.943 11.2424 103.61 11.1931V0.949194C103.092 0.801268 102.612 0.727305 102.131 0.727305C101.576 0.727305 101.071 0.801268 100.627 0.949194V10.8849H89.7667V0.949194C89.3229 0.801268 88.8175 0.727305 88.2627 0.727305C87.7943 0.727305 87.3012 0.801268 86.7835 0.949194V24.0874C87.2273 24.2353 87.7204 24.3092 88.2627 24.3092C88.7558 24.3092 89.2613 24.2353 89.7667 24.0874V13.6709H100.627V24.0874C101.145 24.2353 101.638 24.3092 102.131 24.3092C102.661 24.3092 103.154 24.2353 103.61 24.0874V13.8311C103.881 13.8558 104.14 13.8928 104.448 13.8928C105.385 13.8928 106.285 13.7818 107.123 13.5722C107.962 13.3627 108.726 13.0668 109.379 12.7093V16.3952C109.379 19.0455 109.934 21.0672 111.031 22.4478C112.128 23.8408 113.718 24.5311 115.789 24.5311C117.071 24.5311 118.181 24.2969 119.118 23.8408C120.055 23.3847 120.831 22.719 121.423 21.8438C122.15 23.6436 123.543 24.5311 125.589 24.5311C126.909 24.5311 128.228 24.1736 129.534 23.4463C130.841 22.719 131.938 21.5849 132.838 20.044C133.282 21.4493 133.984 22.5588 134.934 23.3477C135.883 24.1367 137.054 24.5311 138.447 24.5311C138.804 24.5311 139.088 24.4079 139.297 24.1613C139.495 23.9148 139.606 23.5943 139.606 23.1875C139.606 22.2506 139.297 21.7822 138.681 21.7822C137.485 21.7822 136.561 21.2151 135.907 20.0687C135.254 18.9223 134.934 17.2827 134.934 15.1501V8.5181H139.741Z" fill="#2B3A1B"/>
</svg>
